<svg width="452.000000pt" height="155.000000pt" viewBox="0 0 452.000000 155.000000" xmlns="http://www.w3.org/2000/svg">
  <g transform="translate(0.000000,155.000000) scale(0.100000,-0.100000)" fill="#fefefe" stroke="none">
    <path d="M0 775 l0 -775 2260 0 2260 0 0 775 0 775 -2260 0 -2260 0 0 -775z
m759 714 l34 -21 -6 -124 c-4 -69 -14 -152 -22 -185 -19 -72 -115 -329 -144
-387 -21 -42 -28 -102 -12 -102 12 0 -47 -148 -94 -236 l-35 -66 0 -38 0 -38
16 -6 c27 -10 288 -26 439 -26 77 0 179 5 225 11 115 16 122 16 127 2 l4 -11
-58 -22 c-31 -12 -79 -25 -105 -30 -27 -5 -81 -23 -121 -39 -39 -16 -101 -35
-137 -42 l-65 -14 -203 0 -203 0 -18 -24 -18 -24 -29 7 c-16 4 -49 11 -74 15
-25 5 -53 12 -62 16 l-18 7 0 24 c0 13 -4 24 -10 24 -19 0 -10 28 21 61 16 18
51 76 76 128 24 53 56 119 69 146 13 28 24 55 24 62 0 6 18 56 41 110 77 187
151 401 214 623 37 132 55 187 68 208 12 18 37 15 76 -9z m594 -347 c22 -19
22 -47 -2 -86 -10 -17 -21 -47 -25 -66 -3 -19 -20 -71 -36 -115 -16 -44 -30
-90 -30 -102 l0 -23 20 0 21 0 83 88 84 87 63 38 c35 20 72 37 83 37 10 0 25
-8 32 -17 l13 -18 -6 -57 -6 -58 31 0 c17 0 34 5 37 10 10 17 138 116 172 133
41 22 65 21 94 -1 l22 -19 -46 -115 c-26 -64 -47 -128 -47 -142 l0 -26 23 0
23 0 188 185 187 185 35 0 c19 0 53 -9 74 -20 l40 -20 0 -28 c0 -16 -22 -102
-50 -193 l-50 -164 0 -47 0 -48 23 0 23 0 35 38 c19 20 57 63 83 95 l48 58 39
113 c21 63 53 145 71 182 l33 69 28 9 27 10 11 -11 11 -11 -40 -113 c-38 -109
-62 -210 -62 -257 l0 -22 23 0 22 1 70 80 c39 45 79 100 90 123 l20 41 27 3
27 3 -6 -75 -6 -76 25 0 25 0 30 35 c17 19 34 35 38 35 4 0 -15 -26 -42 -58
-27 -31 -59 -71 -70 -87 l-21 -30 -11 -65 c-15 -87 -29 -174 -36 -235 -10 -73
-30 -149 -67 -243 l-32 -84 -33 -25 -33 -25 -25 6 -26 7 -11 24 -11 25 12 98
c7 53 20 115 28 137 28 72 90 200 122 250 l31 49 0 28 0 28 -24 0 -24 0 -32
-49 c-35 -55 -112 -131 -133 -131 -24 0 -65 49 -71 85 l-7 35 -21 0 -21 0 -70
-75 -69 -75 -20 0 c-11 0 -33 13 -49 29 l-29 29 0 36 0 36 -23 0 -23 0 -40
-57 c-21 -31 -51 -65 -66 -76 l-26 -20 -27 7 c-15 4 -40 20 -56 36 l-29 28 0
51 0 51 -24 0 -24 0 -31 -47 c-40 -62 -78 -103 -97 -103 -8 0 -33 9 -54 20
l-40 20 0 34 c0 44 30 134 85 252 25 53 45 107 45 120 l0 24 -26 0 -25 0 -59
-56 c-32 -30 -85 -93 -117 -140 -32 -46 -63 -84 -69 -84 -7 0 -22 8 -35 18
l-22 19 31 109 c18 60 32 119 32 132 l0 22 -24 0 -23 0 -53 -42 c-72 -57 -185
-213 -244 -335 l-49 -101 -34 -16 c-18 -9 -39 -16 -46 -16 -20 0 -67 54 -67
76 0 25 87 296 98 303 12 8 89 171 96 202 3 14 16 41 28 60 13 19 29 46 37 61
l14 27 11 -6 c6 -3 19 -13 29 -21z m1821 -204 c-2 -7 -21 -23 -42 -36 l-37
-23 37 35 c40 38 50 44 42 24z m560 -170 c-3 -13 -13 -39 -21 -58 -9 -19 -26
-62 -38 -95 -13 -33 -34 -89 -48 -125 -14 -36 -33 -86 -43 -112 l-19 -48 -21
0 -22 0 5 20 c3 11 9 23 14 26 5 3 9 17 9 32 0 15 9 45 19 66 11 21 23 52 27
69 3 18 19 55 35 84 16 28 38 76 50 107 l20 56 20 0 20 0 -7 -22z m-274 -83
l0 -25 -15 0 c-9 0 -44 -13 -78 -28 -34 -16 -77 -35 -94 -42 -38 -14 -43 -35
-10 -43 35 -8 150 -58 174 -76 12 -9 23 -24 23 -34 l0 -18 -30 16 c-16 8 -36
15 -46 15 -9 0 -33 9 -53 19 -20 11 -69 34 -108 52 -40 17 -73 38 -73 44 0 7
17 20 38 28 20 9 55 23 77 33 22 10 74 32 115 50 41 17 76 32 78 33 1 0 2 -10
2 -24z m477 -17 c43 -22 89 -47 103 -55 14 -7 32 -13 40 -13 19 0 40 -19 40
-37 0 -7 -26 -25 -57 -39 -32 -15 -71 -33 -88 -41 -62 -32 -145 -61 -150 -53
-9 15 20 34 118 80 54 24 97 50 97 56 0 6 -15 17 -32 24 -18 8 -66 29 -105 47
l-73 34 0 19 0 20 15 0 c8 0 50 -19 92 -42z m-2997 -203 l12 -14 -7 -20 c-7
-24 -33 -35 -51 -20 -17 14 -18 41 -2 57 16 16 33 15 48 -3z" />
    <path d="M2294 928 c-52 -55 -105 -131 -131 -188 -21 -45 -43 -134 -43 -170
l0 -20 23 0 22 0 75 97 c41 53 84 110 96 127 27 41 54 121 54 163 l0 33 -28 0
-28 0 -40 -42z" />
    <path d="M2801 398 c-5 -13 -18 -46 -29 -74 -11 -27 -22 -70 -24 -95 l-3 -44
19 0 18 0 24 90 c14 50 27 102 31 118 l5 27 -16 0 c-9 0 -20 -10 -25 -22z" />
  </g>
  <g transform="translate(0.000000,155.000000) scale(0.100000,-0.100000)" fill="#fab905" stroke="none">
    <path d="M686 1519 c-23 -23 -35 -54 -81 -219 -63 -222 -137 -436 -214 -623
-23 -54 -41 -104 -41 -110 0 -7 -11 -34 -24 -62 -13 -27 -45 -93 -69 -146 -25
-52 -60 -110 -76 -128 l-31 -33 0 -24 c0 -13 5 -24 10 -24 6 0 10 -11 10 -24
l0 -24 17 -7 c16 -7 51 -14 152 -32 l34 -6 18 24 18 24 203 0 203 0 65 14 c36
7 98 26 137 42 40 16 95 34 122 39 63 12 196 63 179 69 -7 2 -18 11 -24 19
l-11 15 -59 -12 c-87 -19 -356 -25 -540 -12 -88 6 -168 13 -177 17 l-17 6 0
28 c0 16 16 58 35 95 20 37 52 108 72 158 l37 91 -12 4 c-18 6 -14 38 9 84 30
58 125 316 144 388 l16 62 6 133 6 133 -34 21 c-19 11 -39 25 -46 30 -7 6 -13
11 -15 10 -2 0 -12 -9 -22 -20z" />
    <path d="M1289 1153 c-8 -16 -24 -43 -37 -62 -12 -19 -25 -46 -28 -60 -7 -31
-84 -194 -96 -202 -13 -9 -98 -281 -98 -313 l0 -30 27 -28 27 -28 23 0 c12 0
38 7 56 16 l34 16 49 101 c27 56 81 144 120 197 92 124 204 215 204 166 0 -7
-13 -59 -30 -114 -16 -56 -30 -111 -30 -122 l0 -20 31 -19 c18 -11 37 -17 43
-15 6 2 37 42 69 89 90 129 207 232 207 181 0 -7 -20 -57 -45 -110 -58 -126
-85 -209 -85 -262 l0 -44 40 -20 c21 -11 50 -20 64 -20 l25 0 26 28 c14 15 40
48 56 75 17 26 37 47 45 47 l14 0 0 -48 0 -48 16 -22 c8 -12 33 -31 55 -42
l39 -20 28 14 c32 17 60 46 97 104 15 23 34 42 41 42 l14 0 0 -36 0 -36 29
-29 29 -29 30 0 30 0 69 75 c38 41 75 75 81 75 6 0 14 -16 18 -35 3 -19 17
-46 31 -60 l26 -25 24 0 23 0 45 41 c24 22 58 63 75 90 32 50 60 64 60 31 0
-10 -14 -40 -32 -68 -31 -48 -89 -166 -115 -234 -17 -44 -43 -192 -43 -247 l0
-43 20 -20 20 -20 28 0 28 0 32 28 31 27 30 75 c33 86 56 173 66 245 7 61 21
148 36 235 l11 65 21 30 c33 47 141 175 147 175 13 0 50 42 50 55 0 33 -38 11
-105 -60 -39 -41 -77 -75 -85 -75 l-13 0 7 76 7 75 -38 -3 -38 -3 -20 -41
c-11 -23 -51 -78 -90 -123 -66 -75 -95 -97 -95 -69 0 38 28 148 62 246 22 62
38 121 36 130 l-3 17 -27 3 c-15 2 -37 -2 -48 -8 l-22 -12 -30 -66 c-16 -37
-47 -117 -68 -179 l-38 -112 -48 -58 c-75 -90 -117 -133 -131 -133 l-13 0 0
38 c0 20 23 111 50 201 28 91 50 182 50 203 l0 38 -47 23 -48 23 -35 -1 -35
-1 -190 -187 c-104 -103 -195 -187 -202 -187 -7 0 -13 8 -13 18 0 9 21 66 45
126 25 61 45 118 45 127 0 24 -38 49 -73 49 -15 0 -42 -7 -60 -17 -34 -17
-162 -116 -172 -133 -3 -5 -15 -10 -27 -10 l-20 0 6 54 7 54 -13 21 -13 21
-30 0 -30 0 -64 -37 -63 -38 -84 -87 c-46 -49 -88 -88 -94 -88 -16 0 -12 19
20 105 16 44 33 96 36 115 4 19 14 49 24 65 10 17 20 42 24 57 l6 26 -31 26
c-17 14 -36 26 -43 26 -7 0 -19 -12 -27 -27z m1091 -216 c0 -40 -31 -120 -67
-171 -66 -92 -156 -201 -169 -204 -8 -2 -14 1 -14 7 0 28 25 121 43 161 42 93
155 230 189 230 l18 0 0 -23z m442 -564 c-9 -16 -41 -127 -46 -158 -1 -5 -6
-10 -11 -10 -5 0 -8 13 -6 30 3 26 13 57 53 155 l10 25 5 -12 c2 -7 0 -20 -5
-30z" />
    <path d="M3697 795 c-9 -8 -21 -32 -27 -52 -7 -21 -25 -60 -39 -88 -15 -27
-33 -70 -41 -95 -8 -25 -23 -61 -32 -80 -10 -19 -18 -44 -18 -56 0 -12 -7 -35
-15 -50 -8 -16 -15 -34 -15 -40 0 -15 23 -24 47 -18 l19 5 18 47 c10 26 29 76
43 112 14 36 36 92 48 125 13 33 34 88 47 123 l23 63 -15 9 c-20 13 -26 12
-43 -5z" />
    <path d="M3370 686 c-41 -18 -93 -40 -115 -50 -22 -10 -57 -24 -77 -33 l-38
-15 0 -23 0 -22 73 -32 c39 -18 90 -41 112 -51 37 -16 84 -34 128 -47 l17 -5
0 28 -1 29 -23 17 c-22 16 -73 38 -164 72 l-34 13 34 13 c18 7 61 26 95 42 34
15 69 28 76 28 8 0 17 8 19 18 6 25 -2 52 -15 51 -7 -1 -46 -16 -87 -33z" />
    <path d="M3817 708 c-2 -7 -2 -21 1 -31 l4 -17 72 -33 c39 -19 86 -40 105 -47
l33 -13 -102 -49 c-57 -27 -109 -56 -116 -66 l-13 -17 14 -14 13 -13 57 21
c31 12 73 30 93 40 20 11 61 29 90 42 29 12 58 29 64 36 l10 13 -16 25 c-9 14
-24 25 -34 25 -9 0 -28 6 -42 13 -14 8 -60 33 -103 55 -78 42 -122 52 -130 30z" />
    <path d="M874 465 l-16 -25 16 -25 c9 -14 25 -25 36 -25 40 0 66 60 38 88 -7
7 -22 12 -35 12 l-23 0 -16 -25z" />
  </g>
  <g transform="translate(0.000000,155.000000) scale(0.100000,-0.100000)" fill="#fdf5df" stroke="none">
    <path d="M3607 613 c-4 -3 -7 -11 -7 -17 l0 -10 12 12 c6 6 9 14 7 17 -3 3 -9
2 -12 -2z" />
    <path d="M3587 553 c-4 -3 -7 -11 -7 -17 l0 -10 12 12 c6 6 9 14 7 17 -3 3 -9
2 -12 -2z" />
    <path d="M2801 390 c-5 -16 -8 -30 -6 -30 2 0 10 14 19 30 8 17 11 30 6 30 -4
0 -13 -13 -19 -30z" />
    <path d="M2790 280 c0 -7 3 -10 7 -7 3 4 3 10 0 14 -4 3 -7 0 -7 -7z" />
    <path d="M2785 249 c-4 -6 -5 -12 -2 -15 2 -3 7 2 10 11 7 17 1 20 -8 4z" />
    <path d="M2751 224 l1 -19 5 13 c3 7 2 16 -1 19 -3 4 -6 -2 -5 -13z" />
    <path d="M2755 190 c3 -5 8 -10 11 -10 3 0 2 5 -1 10 -3 6 -8 10 -11 10 -3 0
-2 -4 1 -10z" />
  </g>
  <g transform="translate(0.000000,155.000000) scale(0.100000,-0.100000)" fill="#fdf2d4" stroke="none">
    <path d="M3610 610 c0 -7 3 -10 7 -7 3 4 3 10 0 14 -4 3 -7 0 -7 -7z" />
    <path d="M2800 390 c0 -7 3 -10 7 -7 3 4 3 10 0 14 -4 3 -7 0 -7 -7z" />
    <path d="M2781 344 c-6 -15 -9 -29 -7 -32 3 -2 10 8 16 23 14 36 7 43 -9 9z" />
    <path d="M2810 350 c0 -7 3 -10 7 -7 3 4 3 10 0 14 -4 3 -7 0 -7 -7z" />
    <path d="M2800 320 c0 -7 3 -10 7 -7 3 4 3 10 0 14 -4 3 -7 0 -7 -7z" />
    <path d="M2760 280 c0 -7 3 -10 7 -7 3 4 3 10 0 14 -4 3 -7 0 -7 -7z" />
    <path d="M2750 240 c0 -7 3 -10 7 -7 3 4 3 10 0 14 -4 3 -7 0 -7 -7z" />
  </g>
  <g transform="translate(0.000000,155.000000) scale(0.100000,-0.100000)" fill="#facd50" stroke="none">
    <path d="M3604 598 l-7 -11 11 7 c7 4 12 9 12 12 0 8 -9 4 -16 -8z" />
    <path d="M2771 323 c-1 -6 -4 -20 -7 -30 l-6 -18 12 18 c6 10 9 23 6 30 l-4
12 -1 -12z" />
    <path d="M2764 188 l-7 -11 11 7 c12 7 16 16 8 16 -3 0 -8 -5 -12 -12z" />
  </g>
  <g transform="translate(0.000000,155.000000) scale(0.100000,-0.100000)" fill="#fce29c" stroke="none">
    <path d="M3584 538 l-7 -11 11 7 c12 7 16 16 8 16 -3 0 -8 -5 -12 -12z" />
    <path d="M2815 420 c-3 -5 -1 -10 4 -10 6 0 11 5 11 10 0 6 -2 10 -4 10 -3 0
-8 -4 -11 -10z" />
  </g>
  <g transform="translate(0.000000,155.000000) scale(0.100000,-0.100000)" fill="#fdedc3" stroke="none">
    <path d="M3596 591 c-4 -7 -5 -15 -2 -18 9 -9 19 4 14 18 l-4 13 -8 -13z" />
    <path d="M2365 450 c4 -6 11 -8 16 -5 14 9 11 15 -7 15 l-15 0 6 -10z" />
    <path d="M2750 250 c0 -7 3 -10 7 -7 3 4 3 10 0 14 -4 3 -7 0 -7 -7z" />
  </g>
  <g transform="translate(0.000000,155.000000) scale(0.100000,-0.100000)" fill="#fbd774" stroke="none">
    <path d="M2791 264 l1 -19 5 13 c3 7 2 16 -1 19 -3 4 -6 -2 -5 -13z" />
  </g>
  <g transform="translate(0.000000,155.000000) scale(0.100000,-0.100000)" fill="#fabe1d" stroke="none">
    <path d="M3596 585 c-3 -8 -1 -15 4 -15 6 0 10 7 10 15 0 8 -2 15 -4 15 -2 0
-6 -7 -10 -15z" />
    <path d="M3590 550 c0 -7 3 -10 7 -7 3 4 3 10 0 14 -4 3 -7 0 -7 -7z" />
    <path d="M2365 460 l-6 -10 16 0 16 0 -6 10 c-3 6 -8 10 -10 10 -2 0 -7 -4
-10 -10z" />
  </g>
  <g transform="translate(0.000000,155.000000) scale(0.100000,-0.100000)" fill="#fce8ad" stroke="none">
    <path d="M3590 564 l0 -15 10 6 c6 3 10 10 10 16 0 5 -4 9 -10 9 -5 0 -10 -7
-10 -16z" />
  </g>
  <g transform="translate(0.000000,155.000000) scale(0.100000,-0.100000)" fill="#fdecbc" stroke="none">
    <path d="M2820 420 c0 -7 3 -10 7 -7 3 4 3 10 0 14 -4 3 -7 0 -7 -7z" />
    <path d="M2776 333 l-7 -18 12 12 c7 7 10 15 7 18 -3 3 -9 -2 -12 -12z" />
    <path d="M2800 310 c0 -7 3 -10 7 -7 3 4 3 10 0 14 -4 3 -7 0 -7 -7z" />
  </g>
  <g transform="translate(0.000000,155.000000) scale(0.100000,-0.100000)" fill="#f8bb0e" stroke="none">
    <path d="M3593 565 c0 -8 4 -12 9 -9 4 3 8 9 8 15 0 5 -4 9 -8 9 -5 0 -9 -7
-9 -15z" />
    <path d="M2366 462 c-3 -5 1 -9 9 -9 8 0 12 4 9 9 -3 4 -7 8 -9 8 -2 0 -6 -4
-9 -8z" />
  </g>
  <g transform="translate(0.000000,155.000000) scale(0.100000,-0.100000)" fill="#fce9b3" stroke="none">
    <path d="M3593 573 c4 -3 10 -3 14 0 3 4 0 7 -7 7 -7 0 -10 -3 -7 -7z" />
  </g>
  <g transform="translate(0.000000,155.000000) scale(0.100000,-0.100000)" fill="#fbda7e" stroke="none" />
  <g transform="translate(0.000000,155.000000) scale(0.100000,-0.100000)" fill="#f8bb15" stroke="none" />
  <g transform="translate(0.000000,155.000000) scale(0.100000,-0.100000)" fill="#fcdf90" stroke="none" />
  <g transform="translate(0.000000,155.000000) scale(0.100000,-0.100000)" fill="#fce093" stroke="none" />
  <g transform="translate(0.000000,155.000000) scale(0.100000,-0.100000)" fill="#fbd058" stroke="none" />
  <g transform="translate(0.000000,155.000000) scale(0.100000,-0.100000)" fill="#f8b705" stroke="none" />
  <g transform="translate(0.000000,155.000000) scale(0.100000,-0.100000)" fill="#fad469" stroke="none" />
  <g transform="translate(0.000000,155.000000) scale(0.100000,-0.100000)" fill="#000000" stroke="none" />
  <g transform="translate(0.000000,155.000000) scale(0.100000,-0.100000)" fill="#000000" stroke="none" />
  <g transform="translate(0.000000,155.000000) scale(0.100000,-0.100000)" fill="#000000" stroke="none" />
  <g transform="translate(0.000000,155.000000) scale(0.100000,-0.100000)" fill="#000000" stroke="none" />
  <g transform="translate(0.000000,155.000000) scale(0.100000,-0.100000)" fill="#000000" stroke="none" />
</svg>